<svg id="Layer_1" data-name="Layer 1" xmlns="http://www.w3.org/2000/svg" width="569.5" height="484" viewBox="0 0 569.5 484"><defs><style>.cls-1{fill:#fefefe;}.cls-2{fill:#084a30;}.cls-3{fill:#07492f;}.cls-4{fill:#1a4d3c;}.cls-5{fill:#e8f8f5;}.cls-6{fill:#3c6d63;}.cls-7{fill:#4a7065;}.cls-8{fill:#e6f2f0;}.cls-9{fill:#e1f7ef;}.cls-10{fill:#dbf7f2;}</style></defs><path class="cls-1" d="M718.7572,580.8448q-137.2577,0-274.5148.1518c-7.5937.0194-10.2261-.9389-10.2095-8.7954q.4937-232.8021-.0328-465.6051c-.021-8.5626,2.4514-9.6085,11.0382-9.596q273.7025.3978,547.4055.0022c8.5538-.0123,11.0773.9858,11.0561,9.5793q-.5765,232.802-.0376,465.6053c.0164,7.8195-2.5578,8.8328-10.19,8.8128Q856.0154,580.64,718.7572,580.8448Z" transform="translate(-434 -97)"/><path class="cls-2" d="M645.0773,135.7429c13.6515,26.5843,11.9783,54.8449,9.8934,82.8489-1.1308,15.1894-10.4731,26.5-27.3647,31.383-2.0575.5948-4.219.9358-6.2116,1.6657-9.4563,3.4638-22.3889,4.859-27.16,11.2463-3.6611,4.9009,4.0641,16.056,4.8633,24.5734,3.2514,34.65,5.8319,68.9116-2.2113,103.8872-10.9251,47.5076-15.2741,95.8391-6.8407,144.5853,2.2917,13.2462,11.9563,13.09,21.49,15.4157,3.6264.8848,8.3873,1.2337,8.883,5.1575.6064,4.8005-4.9374,4.183-8.1313,5.3575-14.3293,5.2694-32.5543-7.438-42.2794,1.1246-13.42,11.8159-26.1959,4.5944-38.9869,5.8187-8.3316.7975-17.0134-2.1755-25.5842-2.52-19.8292-.7979-23.5068-4.52-19.3723-23.2554,8.8946-40.3056,18.7111-80.4474,27.2426-120.814,4.975-23.5392,7.9147-47.4272,12.3759-71.0642,1.3612-7.2126-2.8962-10.721-7.7971-14.74-35.5448-29.15-36.3075-29.5492-14.7674-67.1979,8.466-14.7972,17.7964-29.689,31.8444-41.4755,7.34-6.1585,2.2009-14.3451-1.3365-19.8654-3.5492-5.5388-7.6368-11.5762-14.3947-15.4707-6.7724-3.903-12.0784-9.0046-2.75-16.0026,5.4662-4.1006-1.1756-6.7679-2.5579-9.7427-4.7555-10.2343-16.3667-18.0108,4.0282-28.6928,11.2209-5.8771,19.3556-18.3357,34.42-21.4521,12.1487-2.5132,20.758.208,26.9218,10.5955,4.78,8.0553,8.0437,17.2956,17.2027,22.7222,1.3.77,5.0958,1.6028,1.42,3.2336-13.0052,5.7694-2.9736,13.0833-3.0806,20.1934-.211,14.03.4034,29.1781-11.4753,40.8905-2.411,4.5736-7.99,8.4864-2.8282,14.4634,5.1054,5.9121,11.4213,4.3511,17.7082,2.8323,22.3019-5.3877,34.3442-24.4534,31.521-49.68-1.3632-11.7552.2422-23.9963-6.9086-34.8508-.1816-.2756,1.867-1.76,2.8756-2.6808C629.8473,137.0306,633.18,128.3547,645.0773,135.7429Z" transform="translate(-434 -97)"/><path class="cls-3" d="M824.328,153.26c4.7282,15.4944,3.6216,32.0367,10.2989,47.1809,6.3457,13.0747,19.1743,19.6025,32.033,26.1l6.4389.4649c11.2171-2.374,11.2634-2.5334,3.2844-11.3066-8.0426-4.1193-10.4333-9.7366-9.7948-18.5315.9415-12.9666.0239-25.7267,3.0524-38.9179,3.1061-13.53,13.4862-22.6887,18.6713-34.673,2.0008-4.6244,8.7053-3.7071,13.08-1.8511,14.0468,5.96,26.0642,16.753,43.4482,14.452.4084,6.54,19.1354,5.5288,7.6122,18.4309-5.072,5.6788-11.7741,16.1856-4.3064,26.7235,2.7834,3.9277-.1592,9.5762-4.7957,12.9846-22.524,16.558-23.5554,22.1476-4.4268,40.4505,17.1042,16.3659,26.8947,36.2768,36.5282,56.4549,5.6172,11.7655-2.1532,18.1794-11.2634,24.1857-5.4608,1.2934-7.7646-3.7164-6.6289-5.4707,4.2321-6.5372-3.5733-7.3078-5.2-10.8507-2.7119-2.68-1.1308-11.7674-9.8679-5.3512-7.1614,3.1547-10.8018,7.0786-4.8822,14.1242,10.1921,12.131.9729,24.6829.2989,37.0025-.194,3.5473,3.5446.9828,3.3605,3.0195,5.7314,17.5013,7.9412,34.9148,5.2168,53.471-2.7191,18.5195,5.4356,36.5912,9.2111,54.75,5.9821,28.7721,13.5037,57.2811,20.39,85.8982,4.2882,17.82-1.1728,24.5789-20.7418,23.72-8.447-.3709-15.669,3.085-23.7937,3.56-27.9873,1.6366-54.2635-9.2478-82.0493-8.69-2.468.0495-5.8045-.2492-5.78-3.6409.0193-2.74,2.367-4.19,4.9037-5.234,1.4737-.6068,3.0064-1.6691,4.4773-1.6219,21.2452.6815,21.6081-13.6306,23.8771-26.87,5.4078-31.5533-2.8358-62.4917-5.2887-93.65-2.3427-29.76-9.5432-59.3325-10.0228-89.0483-.4294-26.6034,2.5161-53.6675,10.9793-79.6158,2.4541-7.5244,1.4724-11.079-8.1025-10.5219-30.54,1.7768-44.3173-14.5656-52.3333-38.6594-7.3332-22.0416-13.0991-43.9987-10.0229-67.19C816.8931,132.1465,817.4717,149.2585,824.328,153.26Z" transform="translate(-434 -97)"/><path class="cls-4" d="M941.2683,347.8811c-5.4259-.2573-8.7349,3.175-5.2261-7.0236,4.91-14.2727,5.47-32.741-10.8377-46.7641,6.8866,3.867,11.3763,1.4255,15.51-2.3169,1.224,8.3991,7.2056,7.5963,13.6888,5.8233a76.6626,76.6626,0,0,0,7.5213,4.6129c4.4311,2.0976,4.514,1.9533.5757,5.1131-2.1243,1.7043-2.1243,1.7044,1.6876,8.0818-2.1071,5.3218-7.4086,8.3652-11.9939,10.928C942.7937,331.59,939.6884,338.52,941.2683,347.8811Z" transform="translate(-434 -97)"/><path class="cls-5" d="M629.7616,181.7632c8.1264,28.1022-8.1495,49.3044-39.1753,55.4093-15.0641,2.9641-15.9289-8.2083-19.062-13.4952-4.5789-7.7266,6.9892-6.8871,11.8364-9.5293,1.833,16.4721,4.3786,17.9491,20.3841,11.04C623.9294,216.4751,627.4971,199.4007,629.7616,181.7632Z" transform="translate(-434 -97)"/><path class="cls-6" d="M824.328,153.26c-8.1613-1.2757-10.1868-15.3656-22.14-8.7227-3.2269-9.62,6.3445-13.04,11.8485-13.4954,8.5076-.7035,7.8212,7.21,7.1334,12.9221C820.7275,147.6405,822.6749,150.3355,824.328,153.26Z" transform="translate(-434 -97)"/><path class="cls-7" d="M645.0773,135.7429c-9.2033-2.3354-13.8664,3.8446-19.3485,8.4887a43.98,43.98,0,0,0,.371-5.7813c-.2988-4.8265-5.45-12.0083,3.118-13.1821C635.7579,124.3721,644.5718,126.3375,645.0773,135.7429Z" transform="translate(-434 -97)"/><path class="cls-8" d="M866.66,226.5406c-15.6361-3.693-28.2842-10.4033-32.033-26.1C842.2529,212.2223,858.9874,214.8057,866.66,226.5406Z" transform="translate(-434 -97)"/><path class="cls-8" d="M876.3832,215.6989c4.93,1.94,13.75,2.164,12.0977,8.2266-1.4119,5.18-8.9345,7.0624-15.3823,3.08C880.4879,224.7411,876.9347,219.8613,876.3832,215.6989Z" transform="translate(-434 -97)"/><path class="cls-9" d="M528.4466,317.5374c-23.88-16.1175-24.1889-17.3984-7.149-30.8162C524.5707,296.9017,528.0192,306.6276,528.4466,317.5374Z" transform="translate(-434 -97)"/><path class="cls-10" d="M954.4035,297.6l-14.4741,11.8839c-4.3119-6.5832,1.7247-12.0693.7853-17.7069,2.2076-2.8106,1.2529-9.7465,6.0777-8.1682C952.3487,285.4261,956.4164,290.8834,954.4035,297.6Z" transform="translate(-434 -97)"/></svg>