<?xml version="1.0" encoding="UTF-8" ?>
<!DOCTYPE svg PUBLIC "-//W3C//DTD SVG 1.1//EN" "http://www.w3.org/Graphics/SVG/1.1/DTD/svg11.dtd">
<svg width="129pt" height="129pt" viewBox="0 0 129 129" version="1.1" xmlns="http://www.w3.org/2000/svg">
<g id="#ffffffff">
<path fill="#ffffff" opacity="1.00" d=" M 0.00 0.00 L 129.00 0.00 L 129.00 129.00 L 0.00 129.00 L 0.00 0.00 M 48.60 21.49 C 44.61 26.48 42.90 33.37 44.65 39.58 C 46.26 47.08 52.66 53.06 59.97 54.98 C 63.34 55.98 67.05 55.14 70.24 56.82 C 72.82 58.06 75.65 58.60 78.28 59.70 C 78.09 63.39 78.14 67.09 78.19 70.78 C 68.54 59.73 51.83 57.23 38.53 62.39 C 33.54 65.00 30.25 70.08 28.54 75.32 C 26.16 82.88 25.28 90.80 23.85 98.57 C 22.91 105.23 21.66 111.86 21.12 118.57 C 35.99 118.12 50.87 118.52 65.74 118.13 C 66.98 108.70 68.78 99.35 70.09 89.92 C 73.44 93.59 76.49 97.53 79.41 101.55 C 81.69 105.24 87.48 105.49 90.59 102.76 C 93.64 100.50 92.75 96.24 92.88 92.97 C 93.06 81.53 92.48 70.05 93.17 58.63 C 99.14 54.21 107.45 54.26 112.61 48.64 C 113.60 47.54 115.56 46.79 115.36 45.04 C 112.86 45.55 110.30 45.50 107.76 45.32 C 107.60 41.79 107.30 38.28 106.84 34.78 C 102.59 38.07 97.50 40.24 92.15 40.82 C 90.50 40.43 89.00 39.57 87.41 38.98 C 87.56 35.24 87.80 31.38 86.37 27.83 C 83.78 20.03 76.27 14.26 68.12 13.53 C 60.85 12.85 53.21 15.74 48.60 21.49 Z" />
<path fill="#ffffff" opacity="1.00" d=" M 62.58 49.65 C 70.28 48.41 77.55 43.24 80.01 35.64 C 90.45 41.87 102.23 46.25 114.50 46.40 C 112.46 47.82 110.51 49.35 108.74 51.08 C 103.45 53.37 97.80 54.60 92.95 57.86 C 92.70 52.32 85.72 49.71 81.34 52.44 C 79.02 53.57 78.41 56.30 77.89 58.57 C 72.11 57.19 65.87 54.95 62.58 49.65 Z" />
<path fill="#ffffff" opacity="1.00" d=" M 94.89 41.09 C 98.96 40.04 103.17 38.85 106.33 35.91 C 106.53 38.92 106.88 41.92 107.16 44.93 C 102.77 44.67 98.68 42.98 94.42 42.10 L 94.89 41.09 Z" />
</g>
<g id="#181516ff">
<path fill="#181516" opacity="1.00" d=" M 48.60 21.49 C 53.21 15.74 60.85 12.85 68.12 13.53 C 76.27 14.26 83.78 20.03 86.37 27.83 C 87.80 31.38 87.56 35.24 87.41 38.98 C 89.00 39.57 90.50 40.43 92.15 40.82 C 97.50 40.24 102.59 38.07 106.84 34.78 C 107.30 38.28 107.60 41.79 107.76 45.32 C 110.30 45.50 112.86 45.55 115.36 45.04 C 115.56 46.79 113.60 47.54 112.61 48.64 C 107.45 54.26 99.14 54.21 93.17 58.63 C 92.48 70.05 93.06 81.53 92.88 92.97 C 92.75 96.24 93.64 100.50 90.59 102.76 C 87.48 105.49 81.69 105.24 79.41 101.55 C 76.49 97.53 73.44 93.59 70.09 89.92 C 68.78 99.35 66.98 108.70 65.74 118.13 C 50.87 118.52 35.99 118.12 21.12 118.57 C 21.66 111.86 22.91 105.23 23.85 98.57 C 25.28 90.80 26.16 82.88 28.54 75.32 C 30.25 70.08 33.54 65.00 38.53 62.39 C 51.83 57.23 68.54 59.73 78.19 70.78 C 78.14 67.09 78.09 63.39 78.28 59.70 C 75.65 58.60 72.82 58.06 70.24 56.82 C 67.05 55.14 63.34 55.98 59.97 54.98 C 52.66 53.06 46.26 47.08 44.65 39.58 C 42.90 33.37 44.61 26.48 48.60 21.49 M 62.58 49.65 C 65.87 54.95 72.11 57.19 77.89 58.57 C 78.41 56.30 79.02 53.57 81.34 52.44 C 85.72 49.71 92.70 52.32 92.95 57.86 C 97.80 54.60 103.45 53.37 108.74 51.08 C 110.51 49.35 112.46 47.82 114.50 46.40 C 102.23 46.25 90.45 41.87 80.01 35.64 C 77.55 43.24 70.28 48.41 62.58 49.65 M 94.89 41.09 L 94.42 42.10 C 98.68 42.98 102.77 44.67 107.16 44.93 C 106.88 41.92 106.53 38.92 106.33 35.91 C 103.17 38.85 98.96 40.04 94.89 41.09 Z" />
</g>
</svg>
