<?xml version="1.0" standalone="no"?>
<!DOCTYPE svg PUBLIC "-//W3C//DTD SVG 20010904//EN"
 "http://www.w3.org/TR/2001/REC-SVG-20010904/DTD/svg10.dtd">
<svg version="1.0" xmlns="http://www.w3.org/2000/svg"
 width="219.000000pt" height="251.000000pt" viewBox="0 0 219.000000 251.000000"
 preserveAspectRatio="xMidYMid meet">

<g transform="translate(0.000000,251.000000) scale(0.100000,-0.100000)"
fill="#000000" stroke="none">
<path d="M647 2360 c-20 -16 -27 -30 -27 -55 0 -27 10 -42 62 -90 58 -54 63
-57 100 -51 28 5 52 1 82 -12 41 -18 49 -29 70 -96 5 -14 12 -17 32 -12 40 10
89 -3 123 -34 28 -26 31 -34 31 -89 l0 -61 52 0 c58 0 128 -29 156 -64 11 -15
32 -25 60 -28 91 -13 152 -85 152 -181 0 -40 7 -67 25 -98 44 -78 29 -217 -27
-235 -15 -4 -16 -15 -11 -87 5 -75 3 -85 -19 -117 -30 -44 -83 -80 -119 -80
-32 0 -46 -15 -23 -24 9 -3 38 -6 66 -6 48 0 53 -3 130 -72 l80 -72 27 30 c14
16 74 81 131 144 57 63 130 142 162 175 32 33 58 65 58 72 0 6 -33 42 -74 78
l-74 67 -4 76 c-3 60 -10 90 -33 135 -32 64 -70 103 -365 372 -107 98 -223
205 -258 237 -35 33 -68 58 -74 56 -17 -6 -48 -69 -48 -98 0 -43 28 -82 116
-163 77 -72 101 -107 73 -107 -10 0 -161 134 -314 279 -144 137 -241 220 -266
226 -17 4 -33 0 -52 -15z"/>
<path d="M419 2312 c-15 -13 -22 -30 -22 -52 0 -29 11 -44 88 -117 77 -72 93
-83 124 -83 20 0 45 -3 57 -6 17 -4 22 1 32 33 l12 38 -82 80 c-137 133 -161
145 -209 107z"/>
<path d="M392 2084 c-16 -11 -22 -25 -22 -52 0 -32 8 -44 63 -96 l62 -59 6 39
c3 21 13 57 22 78 16 37 16 40 0 55 -57 53 -92 62 -131 35z"/>
<path d="M760 2070 c-11 -11 -20 -32 -20 -47 -1 -16 -1 -199 0 -409 1 -327 -1
-383 -14 -393 -8 -7 -20 -10 -26 -6 -6 4 -10 125 -10 358 0 399 0 397 -69 397
-72 0 -71 7 -71 -387 0 -298 -2 -352 -15 -363 -12 -10 -16 -10 -20 1 -2 8 -6
129 -7 270 -3 236 -5 259 -22 278 -19 21 -60 27 -83 13 -6 -4 -16 -19 -21 -32
-12 -32 -12 -952 0 -1039 11 -83 34 -133 94 -206 l49 -60 5 -109 5 -109 130
-1 c72 -1 199 0 283 2 l152 2 0 109 0 110 38 27 c43 31 68 66 98 134 18 42 19
76 22 504 l3 459 -43 -6 c-32 -4 -51 -15 -75 -41 l-33 -36 0 -129 c0 -95 -3
-131 -13 -140 -8 -6 -17 -8 -20 -4 -4 3 -7 162 -7 353 0 336 -1 348 -21 374
-36 45 -100 31 -117 -26 -5 -19 -8 -165 -6 -333 3 -336 0 -378 -24 -373 -15 3
-17 43 -22 420 -5 391 -6 417 -24 437 -24 27 -70 27 -96 1z"/>
<path d="M1315 960 c3 -5 8 -10 11 -10 2 0 4 5 4 10 0 6 -5 10 -11 10 -5 0 -7
-4 -4 -10z"/>
</g>
</svg>
