<?xml version="1.0" encoding="UTF-8" ?>
<!DOCTYPE svg PUBLIC "-//W3C//DTD SVG 1.1//EN" "http://www.w3.org/Graphics/SVG/1.1/DTD/svg11.dtd">
<svg width="159pt" height="145pt" viewBox="0 0 159 145" version="1.1" xmlns="http://www.w3.org/2000/svg">
<g id="#fefefeff">
<path fill="#fefefe" opacity="1.00" d=" M 0.00 0.00 L 159.00 0.00 L 159.00 145.00 L 0.00 145.00 L 0.00 0.00 M 77.44 10.68 C 57.62 12.98 39.65 25.93 30.69 43.68 C 23.02 58.75 22.10 77.08 28.03 92.90 C 33.26 106.67 43.51 118.63 56.71 125.31 C 69.47 132.35 84.89 134.15 99.03 130.87 C 114.17 127.62 127.60 117.97 136.24 105.22 C 144.81 92.15 148.29 75.77 145.38 60.38 C 142.45 43.13 131.42 27.54 116.40 18.66 C 104.83 11.59 90.84 9.05 77.44 10.68 Z" />
<path fill="#fefefe" opacity="1.00" d=" M 50.62 30.84 C 60.83 21.95 74.58 17.33 88.08 18.15 C 104.60 18.61 120.27 27.93 129.47 41.52 C 142.77 60.46 141.34 88.30 125.97 105.63 C 121.72 103.48 119.00 98.94 115.27 95.93 C 115.26 95.54 115.24 94.75 115.23 94.36 C 115.22 92.35 115.10 90.34 114.60 88.40 C 111.77 76.95 109.03 65.48 106.08 54.06 C 105.35 50.99 102.90 48.47 99.73 48.00 C 94.40 46.48 88.68 51.54 89.46 56.97 C 90.14 61.71 91.73 66.25 92.68 70.93 C 92.29 70.88 91.51 70.76 91.12 70.71 C 87.69 68.94 85.27 65.76 82.91 62.81 C 85.32 63.51 87.80 63.95 90.28 64.34 C 89.61 60.26 87.52 55.77 89.94 51.87 C 92.59 46.02 101.46 45.70 105.16 50.64 C 106.43 52.64 107.03 54.96 107.89 57.14 C 110.46 53.87 112.76 50.17 113.12 45.93 C 114.12 38.23 110.49 30.23 104.06 25.89 C 97.34 21.10 87.90 20.90 80.69 24.73 C 71.31 29.75 66.54 42.54 71.83 52.13 C 64.63 45.17 57.64 37.99 50.62 30.84 Z" />
<path fill="#fefefe" opacity="1.00" d=" M 39.69 43.69 C 41.23 41.16 43.02 38.80 44.87 36.49 C 55.58 46.82 65.95 57.50 76.32 68.17 C 75.16 68.41 74.01 68.63 72.85 68.83 C 66.76 69.32 60.58 71.89 57.33 77.32 C 52.00 86.19 51.58 96.88 49.78 106.83 C 49.60 108.01 49.39 109.19 49.15 110.36 C 30.49 94.25 26.62 64.40 39.69 43.69 Z" />
<path fill="#fefefe" opacity="1.00" d=" M 95.84 98.29 C 99.47 98.97 103.09 99.92 106.80 99.79 C 108.30 99.51 109.19 101.03 110.19 101.84 C 113.38 105.26 116.94 108.32 119.95 111.90 C 112.01 118.71 102.02 122.84 91.72 124.36 C 92.84 115.63 94.64 107.01 95.84 98.29 Z" />
</g>
<g id="#d01d35ff">
<path fill="#d01d35" opacity="1.00" d=" M 77.44 10.68 C 90.84 9.05 104.83 11.59 116.40 18.66 C 131.42 27.54 142.45 43.13 145.38 60.38 C 148.29 75.77 144.81 92.15 136.24 105.22 C 127.60 117.97 114.17 127.62 99.03 130.87 C 84.89 134.15 69.47 132.35 56.71 125.31 C 43.51 118.63 33.26 106.67 28.03 92.90 C 22.10 77.08 23.02 58.75 30.69 43.68 C 39.65 25.93 57.62 12.98 77.44 10.68 M 50.62 30.84 C 57.64 37.99 64.63 45.17 71.83 52.13 C 75.63 55.57 78.69 59.86 82.91 62.81 C 85.27 65.76 87.69 68.94 91.12 70.71 C 92.97 74.11 96.07 76.53 98.73 79.26 C 102.87 83.44 107.19 87.45 111.11 91.85 C 112.14 93.19 113.66 93.86 115.23 94.36 C 115.24 94.75 115.26 95.54 115.27 95.93 C 119.00 98.94 121.72 103.48 125.97 105.63 C 141.34 88.30 142.77 60.46 129.47 41.52 C 120.27 27.93 104.60 18.61 88.08 18.15 C 74.58 17.33 60.83 21.95 50.62 30.84 M 39.69 43.69 C 26.62 64.40 30.49 94.25 49.15 110.36 C 49.39 109.19 49.60 108.01 49.78 106.83 C 49.62 108.21 49.58 109.59 49.67 110.98 C 60.80 121.34 76.68 126.13 91.72 124.36 C 102.02 122.84 112.01 118.71 119.95 111.90 C 116.94 108.32 113.38 105.26 110.19 101.84 C 109.19 101.03 108.30 99.51 106.80 99.79 C 107.04 99.54 107.53 99.05 107.78 98.80 C 101.50 92.89 95.41 86.79 89.41 80.59 C 85.44 76.61 81.25 72.83 77.67 68.47 C 76.06 68.57 74.45 68.65 72.85 68.83 C 74.01 68.63 75.16 68.41 76.32 68.17 C 65.95 57.50 55.58 46.82 44.87 36.49 C 43.02 38.80 41.23 41.16 39.69 43.69 Z" />
</g>
<g id="#181516ff">
<path fill="#181516" opacity="1.00" d=" M 80.69 24.73 C 87.90 20.90 97.34 21.10 104.06 25.89 C 110.49 30.23 114.12 38.23 113.12 45.93 C 112.76 50.17 110.46 53.87 107.89 57.14 C 107.03 54.96 106.43 52.64 105.16 50.64 C 101.46 45.70 92.59 46.02 89.94 51.87 C 87.52 55.77 89.61 60.26 90.28 64.34 C 87.80 63.95 85.32 63.51 82.91 62.81 C 78.69 59.86 75.63 55.57 71.83 52.13 C 66.54 42.54 71.31 29.75 80.69 24.73 Z" />
<path fill="#181516" opacity="1.00" d=" M 89.46 56.97 C 88.68 51.54 94.40 46.48 99.73 48.00 C 102.90 48.47 105.35 50.99 106.08 54.06 C 109.03 65.48 111.77 76.95 114.60 88.40 C 115.10 90.34 115.22 92.35 115.23 94.36 C 113.66 93.86 112.14 93.19 111.11 91.85 C 107.19 87.45 102.87 83.44 98.73 79.26 C 96.07 76.53 92.97 74.11 91.12 70.71 C 91.51 70.76 92.29 70.88 92.68 70.93 C 91.73 66.25 90.14 61.71 89.46 56.97 Z" />
<path fill="#181516" opacity="1.00" d=" M 72.85 68.83 C 74.45 68.65 76.06 68.57 77.67 68.47 C 81.25 72.83 85.44 76.61 89.41 80.59 C 95.41 86.79 101.50 92.89 107.78 98.80 C 107.53 99.05 107.04 99.54 106.80 99.79 C 103.09 99.92 99.47 98.97 95.84 98.29 C 94.64 107.01 92.84 115.63 91.72 124.36 C 76.68 126.13 60.80 121.34 49.67 110.98 C 49.58 109.59 49.62 108.21 49.78 106.83 C 51.58 96.88 52.00 86.19 57.33 77.32 C 60.58 71.89 66.76 69.32 72.85 68.83 Z" />
</g>
</svg>
