<?xml version="1.0" encoding="UTF-8" ?>
<!DOCTYPE svg PUBLIC "-//W3C//DTD SVG 1.1//EN" "http://www.w3.org/Graphics/SVG/1.1/DTD/svg11.dtd">
<svg width="119pt" height="146pt" viewBox="0 0 119 146" version="1.1" xmlns="http://www.w3.org/2000/svg">
<g id="#fefefeff">
<path fill="#fefefe" opacity="1.00" d=" M 0.00 0.00 L 119.00 0.00 L 119.00 146.00 L 0.00 146.00 L 0.00 0.00 M 82.92 9.09 C 73.88 12.71 67.42 20.69 58.33 24.21 C 55.55 25.12 52.61 25.34 49.77 26.01 C 49.17 29.97 51.38 33.47 53.23 36.77 C 55.99 42.31 60.01 48.18 58.32 54.67 C 58.94 54.74 60.18 54.90 60.80 54.97 C 61.20 54.57 61.98 53.76 62.37 53.36 C 68.13 56.96 70.97 63.62 76.38 67.62 C 82.25 71.20 90.82 69.42 94.66 63.67 C 96.95 60.04 96.28 55.61 95.56 51.63 C 99.87 49.37 104.49 47.91 109.21 46.77 C 109.29 41.53 106.55 36.94 105.03 32.08 C 104.49 30.42 103.89 28.72 102.62 27.46 C 102.71 27.09 102.90 26.34 103.00 25.97 C 100.46 21.00 100.59 14.69 96.33 10.65 C 92.72 7.27 87.27 7.40 82.92 9.09 M 13.86 16.20 C 13.44 18.52 14.50 20.53 15.79 22.36 C 16.09 24.82 14.70 27.12 14.13 29.47 C 16.87 28.78 16.68 25.21 18.81 23.76 C 19.76 23.10 20.82 22.65 21.84 22.14 C 22.57 23.07 23.27 24.02 24.07 24.89 C 25.65 26.96 28.60 25.89 30.83 26.13 C 31.72 24.74 32.61 23.34 33.49 21.95 C 31.34 19.92 29.39 17.41 26.54 16.36 C 22.35 15.79 18.08 16.20 13.86 16.20 M 12.24 17.47 C 11.34 18.69 11.56 19.41 12.91 19.63 C 13.80 18.41 13.58 17.69 12.24 17.47 M 22.27 28.12 C 21.79 31.75 25.13 34.91 23.43 38.44 C 21.55 44.05 15.16 47.09 14.35 53.20 C 14.14 58.47 13.39 63.95 15.02 69.06 C 23.00 69.71 31.01 69.27 39.01 69.40 C 40.65 69.58 42.88 68.77 42.95 66.84 C 44.66 55.92 39.99 45.45 35.02 36.02 C 33.51 33.55 34.41 30.57 34.19 27.85 C 30.22 27.71 26.20 27.43 22.27 28.12 M 61.25 83.23 C 62.41 101.15 64.30 119.02 65.82 136.91 C 74.93 137.10 84.06 137.08 93.17 136.91 C 94.62 119.04 96.45 101.22 97.78 83.35 C 96.28 82.62 94.76 81.76 93.03 81.89 C 84.33 81.90 75.64 81.88 66.94 81.89 C 64.94 81.79 63.03 82.39 61.25 83.23 M 22.83 85.01 C 24.79 89.10 25.20 94.44 29.14 97.22 C 29.43 92.76 28.48 88.38 27.52 84.06 C 25.85 83.40 24.28 84.25 22.83 85.01 M 30.69 95.17 C 36.62 95.22 42.16 90.27 41.44 84.10 C 35.46 84.15 30.84 89.35 30.69 95.17 M 14.44 96.55 C 10.10 98.49 7.61 103.10 6.69 107.59 C 5.28 113.58 7.48 119.65 9.97 125.04 C 12.21 129.28 15.44 133.59 20.18 135.13 C 23.47 136.20 26.55 133.03 29.84 134.23 C 32.75 134.90 36.19 136.04 38.72 133.75 C 45.83 127.80 50.56 118.40 49.30 109.00 C 48.94 103.69 45.92 98.09 40.72 96.18 C 36.37 94.79 32.10 96.63 27.99 97.90 C 23.66 96.54 18.94 94.56 14.44 96.55 Z" />
<path fill="#fefefe" opacity="1.00" d=" M 82.11 11.37 C 85.45 11.41 80.63 14.36 82.11 11.37 Z" />
<path fill="#fefefe" opacity="1.00" d=" M 86.07 12.31 C 89.40 12.34 84.59 15.33 86.07 12.31 Z" />
<path fill="#fefefe" opacity="1.00" d=" M 91.23 13.25 C 91.80 13.82 91.80 13.82 91.23 13.25 Z" />
<path fill="#fefefe" opacity="1.00" d=" M 87.17 15.46 C 88.53 15.65 88.77 16.34 87.87 17.54 C 86.51 17.35 86.28 16.66 87.17 15.46 Z" />
<path fill="#fefefe" opacity="1.00" d=" M 92.11 15.28 C 95.45 15.41 90.55 18.23 92.11 15.28 Z" />
<path fill="#fefefe" opacity="1.00" d=" M 84.29 17.06 C 87.25 15.56 84.36 20.41 84.29 17.06 Z" />
<path fill="#fefefe" opacity="1.00" d=" M 92.15 18.47 C 93.51 18.65 93.75 19.34 92.88 20.56 C 91.52 20.39 91.28 19.69 92.15 18.47 Z" />
<path fill="#fefefe" opacity="1.00" d=" M 89.34 19.24 C 89.90 19.82 89.90 19.82 89.34 19.24 Z" />
<path fill="#fefefe" opacity="1.00" d=" M 83.09 20.27 C 86.42 20.48 81.52 23.20 83.09 20.27 Z" />
<path fill="#fefefe" opacity="1.00" d=" M 81.08 21.30 C 84.42 21.48 79.50 24.23 81.08 21.30 Z" />
<path fill="#fefefe" opacity="1.00" d=" M 95.07 21.29 C 98.41 21.34 93.58 24.29 95.07 21.29 Z" />
<path fill="#fefefe" opacity="1.00" d=" M 91.08 22.30 C 94.42 22.39 89.56 25.28 91.08 22.30 Z" />
<path fill="#fefefe" opacity="1.00" d=" M 97.04 23.28 C 100.37 23.40 95.48 26.24 97.04 23.28 Z" />
<path fill="#fefefe" opacity="1.00" d=" M 99.18 23.47 C 100.54 23.66 100.78 24.35 99.87 25.54 C 98.52 25.35 98.28 24.66 99.18 23.47 Z" />
<path fill="#fefefe" opacity="1.00" d=" M 84.08 24.31 C 87.42 24.54 82.46 27.21 84.08 24.31 Z" />
<path fill="#fefefe" opacity="1.00" d=" M 51.10 27.30 C 54.44 27.49 49.52 30.23 51.10 27.30 Z" />
<path fill="#fefefe" opacity="1.00" d=" M 88.11 27.28 C 91.44 27.47 86.53 30.22 88.11 27.28 Z" />
<path fill="#fefefe" opacity="1.00" d=" M 100.15 27.44 C 101.50 27.67 101.72 28.38 100.82 29.57 C 99.47 29.34 99.25 28.63 100.15 27.44 Z" />
<path fill="#fefefe" opacity="1.00" d=" M 82.24 28.24 C 82.81 28.81 82.81 28.81 82.24 28.24 Z" />
<path fill="#fefefe" opacity="1.00" d=" M 53.08 29.32 C 56.43 29.31 51.63 32.33 53.08 29.32 Z" />
<path fill="#fefefe" opacity="1.00" d=" M 59.08 29.32 C 62.44 29.38 57.60 32.29 59.08 29.32 Z" />
<path fill="#fefefe" opacity="1.00" d=" M 53.09 32.29 C 56.44 32.45 51.52 35.23 53.09 32.29 Z" />
<path fill="#fefefe" opacity="1.00" d=" M 58.09 32.27 C 61.43 32.47 56.48 35.19 58.09 32.27 Z" />
<path fill="#fefefe" opacity="1.00" d=" M 60.12 33.29 C 63.44 33.61 58.43 36.16 60.12 33.29 Z" />
<path fill="#fefefe" opacity="1.00" d=" M 93.14 34.45 C 94.49 34.64 94.73 35.35 93.84 36.56 C 92.49 36.36 92.26 35.66 93.14 34.45 Z" />
<path fill="#fefefe" opacity="1.00" d=" M 57.11 35.35 C 60.46 35.37 55.63 38.33 57.11 35.35 Z" />
<path fill="#fefefe" opacity="1.00" d=" M 65.13 35.30 C 68.47 35.50 63.55 38.24 65.13 35.30 Z" />
<path fill="#fefefe" opacity="1.00" d=" M 104.12 37.27 C 107.46 37.61 102.42 40.12 104.12 37.27 Z" />
<path fill="#fefefe" opacity="1.00" d=" M 93.08 38.29 C 96.43 38.41 91.55 41.25 93.08 38.29 Z" />
<path fill="#fefefe" opacity="1.00" d=" M 104.13 40.46 C 105.49 40.66 105.72 41.35 104.84 42.54 C 103.47 42.35 103.23 41.65 104.13 40.46 Z" />
<path fill="#fefefe" opacity="1.00" d=" M 66.28 42.24 C 66.84 42.82 66.84 42.82 66.28 42.24 Z" />
<path fill="#fefefe" opacity="1.00" d=" M 65.08 44.30 C 68.42 44.37 63.59 47.29 65.08 44.30 Z" />
<path fill="#fefefe" opacity="1.00" d=" M 101.09 44.31 C 104.43 44.41 99.60 47.28 101.09 44.31 Z" />
<path fill="#fefefe" opacity="1.00" d=" M 97.09 46.30 C 100.45 46.41 95.56 49.25 97.09 46.30 Z" />
<path fill="#fefefe" opacity="1.00" d=" M 60.15 47.45 C 61.51 47.62 61.74 48.32 60.86 49.54 C 59.50 49.36 59.26 48.67 60.15 47.45 Z" />
<path fill="#fefefe" opacity="1.00" d=" M 65.15 47.45 C 66.51 47.65 66.74 48.35 65.85 49.55 C 64.49 49.35 64.26 48.65 65.15 47.45 Z" />
<path fill="#fefefe" opacity="1.00" d=" M 60.12 51.26 C 63.44 51.49 58.52 54.19 60.12 51.26 Z" />
<path fill="#fefefe" opacity="1.00" d=" M 69.77 53.07 C 71.06 52.66 72.36 52.34 73.68 52.08 C 74.39 54.02 74.93 56.02 75.24 58.06 C 73.13 56.74 71.35 54.98 69.77 53.07 Z" />
<path fill="#fefefe" opacity="1.00" d=" M 91.15 94.25 C 91.71 94.80 91.71 94.80 91.15 94.25 Z" />
<path fill="#fefefe" opacity="1.00" d=" M 85.23 96.25 C 85.81 96.79 85.81 96.79 85.23 96.25 Z" />
<path fill="#fefefe" opacity="1.00" d=" M 85.12 99.29 C 88.47 99.60 83.43 102.12 85.12 99.29 Z" />
<path fill="#fefefe" opacity="1.00" d=" M 89.05 99.29 C 92.40 99.33 87.58 102.28 89.05 99.29 Z" />
<path fill="#fefefe" opacity="1.00" d=" M 65.24 100.24 C 65.81 100.79 65.81 100.79 65.24 100.24 Z" />
<path fill="#fefefe" opacity="1.00" d=" M 74.22 102.23 C 74.79 102.78 74.79 102.78 74.22 102.23 Z" />
<path fill="#fefefe" opacity="1.00" d=" M 89.29 102.06 C 92.24 100.54 89.37 105.42 89.29 102.06 Z" />
<path fill="#fefefe" opacity="1.00" d=" M 76.09 104.30 C 79.45 104.38 74.57 107.26 76.09 104.30 Z" />
<path fill="#fefefe" opacity="1.00" d=" M 85.29 104.09 C 88.23 102.56 85.39 107.46 85.29 104.09 Z" />
<path fill="#fefefe" opacity="1.00" d=" M 89.08 104.31 C 92.42 104.42 87.56 107.27 89.08 104.31 Z" />
<path fill="#fefefe" opacity="1.00" d=" M 93.08 104.29 C 96.44 104.41 91.54 107.23 93.08 104.29 Z" />
<path fill="#fefefe" opacity="1.00" d=" M 72.10 105.33 C 75.47 105.43 70.57 108.26 72.10 105.33 Z" />
<path fill="#fefefe" opacity="1.00" d=" M 83.10 105.28 C 86.43 105.48 81.48 108.19 83.10 105.28 Z" />
<path fill="#fefefe" opacity="1.00" d=" M 91.26 105.25 C 91.82 105.82 91.82 105.82 91.26 105.25 Z" />
<path fill="#fefefe" opacity="1.00" d=" M 67.16 106.27 C 67.73 106.82 67.73 106.82 67.16 106.27 Z" />
<path fill="#fefefe" opacity="1.00" d=" M 74.21 106.28 C 74.75 106.85 74.75 106.85 74.21 106.28 Z" />
<path fill="#fefefe" opacity="1.00" d=" M 85.10 106.29 C 88.43 106.44 83.52 109.24 85.10 106.29 Z" />
<path fill="#fefefe" opacity="1.00" d=" M 76.05 107.27 C 79.38 107.38 74.50 110.24 76.05 107.27 Z" />
<path fill="#fefefe" opacity="1.00" d=" M 78.17 107.45 C 79.52 107.66 79.75 108.37 78.85 109.56 C 77.50 109.35 77.28 108.65 78.17 107.45 Z" />
<path fill="#fefefe" opacity="1.00" d=" M 87.10 107.30 C 90.44 107.44 85.55 110.24 87.10 107.30 Z" />
<path fill="#fefefe" opacity="1.00" d=" M 68.16 109.23 C 68.72 109.79 68.72 109.79 68.16 109.23 Z" />
<path fill="#fefefe" opacity="1.00" d=" M 66.26 110.25 C 66.81 110.80 66.81 110.80 66.26 110.25 Z" />
<path fill="#fefefe" opacity="1.00" d=" M 71.16 110.25 C 71.71 110.81 71.71 110.81 71.16 110.25 Z" />
<path fill="#fefefe" opacity="1.00" d=" M 76.08 110.28 C 79.44 110.38 74.55 113.22 76.08 110.28 Z" />
<path fill="#fefefe" opacity="1.00" d=" M 90.15 110.23 C 90.71 110.79 90.71 110.79 90.15 110.23 Z" />
<path fill="#fefefe" opacity="1.00" d=" M 78.19 111.30 C 78.78 111.83 78.78 111.83 78.19 111.30 Z" />
<path fill="#fefefe" opacity="1.00" d=" M 68.14 113.46 C 69.49 113.63 69.73 114.32 68.83 115.54 C 67.47 115.36 67.24 114.67 68.14 113.46 Z" />
<path fill="#fefefe" opacity="1.00" d=" M 70.34 113.24 C 70.92 113.79 70.92 113.79 70.34 113.24 Z" />
<path fill="#fefefe" opacity="1.00" d=" M 90.24 114.23 C 90.81 114.80 90.81 114.80 90.24 114.23 Z" />
<path fill="#fefefe" opacity="1.00" d=" M 70.33 115.27 C 70.90 115.83 70.90 115.83 70.33 115.27 Z" />
<path fill="#fefefe" opacity="1.00" d=" M 85.06 115.32 C 88.42 115.29 83.62 118.31 85.06 115.32 Z" />
<path fill="#fefefe" opacity="1.00" d=" M 74.23 116.23 C 74.80 116.81 74.80 116.81 74.23 116.23 Z" />
<path fill="#fefefe" opacity="1.00" d=" M 87.28 116.20 C 87.83 116.78 87.83 116.78 87.28 116.20 Z" />
<path fill="#fefefe" opacity="1.00" d=" M 89.07 116.30 C 92.42 116.31 87.60 119.28 89.07 116.30 Z" />
<path fill="#fefefe" opacity="1.00" d=" M 91.26 117.22 C 91.82 117.79 91.82 117.79 91.26 117.22 Z" />
<path fill="#fefefe" opacity="1.00" d=" M 70.23 118.28 C 70.80 118.82 70.80 118.82 70.23 118.28 Z" />
<path fill="#fefefe" opacity="1.00" d=" M 73.20 118.20 C 73.78 118.78 73.78 118.78 73.20 118.20 Z" />
<path fill="#fefefe" opacity="1.00" d=" M 85.09 118.30 C 88.44 118.41 83.55 121.24 85.09 118.30 Z" />
<path fill="#fefefe" opacity="1.00" d=" M 68.24 119.25 C 68.81 119.81 68.81 119.81 68.24 119.25 Z" />
<path fill="#fefefe" opacity="1.00" d=" M 90.05 119.32 C 93.42 119.39 88.53 122.28 90.05 119.32 Z" />
<path fill="#fefefe" opacity="1.00" d=" M 92.24 119.25 C 92.80 119.80 92.80 119.80 92.24 119.25 Z" />
<path fill="#fefefe" opacity="1.00" d=" M 76.34 121.24 C 76.90 121.80 76.90 121.80 76.34 121.24 Z" />
<path fill="#fefefe" opacity="1.00" d=" M 79.33 121.24 C 79.88 121.81 79.88 121.81 79.33 121.24 Z" />
<path fill="#fefefe" opacity="1.00" d=" M 68.16 122.45 C 69.50 122.64 69.73 123.34 68.84 124.55 C 67.49 124.35 67.26 123.65 68.16 122.45 Z" />
<path fill="#fefefe" opacity="1.00" d=" M 88.98 125.05 C 85.74 124.46 90.56 122.09 88.98 125.05 Z" />
<path fill="#fefefe" opacity="1.00" d=" M 90.29 123.24 C 90.85 123.80 90.85 123.80 90.29 123.24 Z" />
<path fill="#fefefe" opacity="1.00" d=" M 70.00 126.00 C 70.57 125.42 70.57 125.42 70.00 126.00 Z" />
<path fill="#fefefe" opacity="1.00" d=" M 88.98 125.05 C 92.25 125.56 87.48 128.01 88.98 125.05 Z" />
<path fill="#fefefe" opacity="1.00" d=" M 70.00 126.00 C 69.44 126.56 69.44 126.56 70.00 126.00 Z" />
<path fill="#fefefe" opacity="1.00" d=" M 81.08 126.33 C 84.44 126.38 79.58 129.27 81.08 126.33 Z" />
<path fill="#fefefe" opacity="1.00" d=" M 87.26 126.24 C 87.81 126.81 87.81 126.81 87.26 126.24 Z" />
<path fill="#fefefe" opacity="1.00" d=" M 71.09 127.30 C 74.46 127.44 69.54 130.23 71.09 127.30 Z" />
<path fill="#fefefe" opacity="1.00" d=" M 79.23 127.20 C 79.76 127.78 79.76 127.78 79.23 127.20 Z" />
<path fill="#fefefe" opacity="1.00" d=" M 86.15 128.25 C 86.72 128.80 86.72 128.80 86.15 128.25 Z" />
<path fill="#fefefe" opacity="1.00" d=" M 88.11 128.29 C 91.44 128.56 86.45 131.18 88.11 128.29 Z" />
<path fill="#fefefe" opacity="1.00" d=" M 68.30 129.20 C 68.86 129.76 68.86 129.76 68.30 129.20 Z" />
<path fill="#fefefe" opacity="1.00" d=" M 75.24 129.23 C 76.89 129.29 76.01 131.74 74.76 131.77 C 73.21 131.69 74.15 129.35 75.24 129.23 Z" />
<path fill="#fefefe" opacity="1.00" d=" M 83.29 129.28 C 83.84 129.84 83.84 129.84 83.29 129.28 Z" />
<path fill="#fefefe" opacity="1.00" d=" M 90.26 129.22 C 90.80 129.80 90.80 129.80 90.26 129.22 Z" />
<path fill="#fefefe" opacity="1.00" d=" M 72.10 130.28 C 75.45 130.47 70.51 133.20 72.10 130.28 Z" />
<path fill="#fefefe" opacity="1.00" d=" M 83.25 131.23 C 83.81 131.80 83.81 131.80 83.25 131.23 Z" />
<path fill="#fefefe" opacity="1.00" d=" M 70.11 132.26 C 73.45 132.61 68.41 135.10 70.11 132.26 Z" />
<path fill="#fefefe" opacity="1.00" d=" M 76.12 132.30 C 79.46 132.54 74.50 135.19 76.12 132.30 Z" />
<path fill="#fefefe" opacity="1.00" d=" M 74.24 133.24 C 74.80 133.81 74.80 133.81 74.24 133.24 Z" />
</g>
<g id="#5d2a58ff">
<path fill="#5d2a58" opacity="1.00" d=" M 82.92 9.09 C 87.27 7.40 92.72 7.27 96.33 10.65 C 100.59 14.69 100.46 21.00 103.00 25.97 C 102.90 26.34 102.71 27.09 102.62 27.46 C 103.89 28.72 104.49 30.42 105.03 32.08 C 106.55 36.94 109.29 41.53 109.21 46.77 C 104.49 47.91 99.87 49.37 95.56 51.63 C 96.28 55.61 96.95 60.04 94.66 63.67 C 90.82 69.42 82.25 71.20 76.38 67.62 C 70.97 63.62 68.13 56.96 62.37 53.36 C 61.98 53.76 61.20 54.57 60.80 54.97 C 60.18 54.90 58.94 54.74 58.32 54.67 C 60.01 48.18 55.99 42.31 53.23 36.77 C 51.38 33.47 49.17 29.97 49.77 26.01 C 52.61 25.34 55.55 25.12 58.33 24.21 C 67.42 20.69 73.88 12.71 82.92 9.09 M 82.11 11.37 C 80.63 14.36 85.45 11.41 82.11 11.37 M 86.07 12.31 C 84.59 15.33 89.40 12.34 86.07 12.31 M 91.23 13.25 C 91.80 13.82 91.80 13.82 91.23 13.25 M 87.17 15.46 C 86.28 16.66 86.51 17.35 87.87 17.54 C 88.77 16.34 88.53 15.65 87.17 15.46 M 92.11 15.28 C 90.55 18.23 95.45 15.41 92.11 15.28 M 84.29 17.06 C 84.36 20.41 87.25 15.56 84.29 17.06 M 92.15 18.47 C 91.28 19.69 91.52 20.39 92.88 20.56 C 93.75 19.34 93.51 18.65 92.15 18.47 M 89.34 19.24 C 89.90 19.82 89.90 19.82 89.34 19.24 M 83.09 20.27 C 81.52 23.20 86.42 20.48 83.09 20.27 M 81.08 21.30 C 79.50 24.23 84.42 21.48 81.08 21.30 M 95.07 21.29 C 93.58 24.29 98.41 21.34 95.07 21.29 M 91.08 22.30 C 89.56 25.28 94.42 22.39 91.08 22.30 M 97.04 23.28 C 95.48 26.24 100.37 23.40 97.04 23.28 M 99.18 23.47 C 98.28 24.66 98.52 25.35 99.87 25.54 C 100.78 24.35 100.54 23.66 99.18 23.47 M 84.08 24.31 C 82.46 27.21 87.42 24.54 84.08 24.31 M 51.10 27.30 C 49.52 30.23 54.44 27.49 51.10 27.30 M 88.11 27.28 C 86.53 30.22 91.44 27.47 88.11 27.28 M 100.15 27.44 C 99.25 28.63 99.47 29.34 100.82 29.57 C 101.72 28.38 101.50 27.67 100.15 27.44 M 82.24 28.24 C 82.81 28.81 82.81 28.81 82.24 28.24 M 53.08 29.32 C 51.63 32.33 56.43 29.31 53.08 29.32 M 59.08 29.32 C 57.60 32.29 62.44 29.38 59.08 29.32 M 53.09 32.29 C 51.52 35.23 56.44 32.45 53.09 32.29 M 58.09 32.27 C 56.48 35.19 61.43 32.47 58.09 32.27 M 60.12 33.29 C 58.43 36.16 63.44 33.61 60.12 33.29 M 93.14 34.45 C 92.26 35.66 92.49 36.36 93.84 36.56 C 94.73 35.35 94.49 34.64 93.14 34.45 M 57.11 35.35 C 55.63 38.33 60.46 35.37 57.11 35.35 M 65.13 35.30 C 63.55 38.24 68.47 35.50 65.13 35.30 M 104.12 37.27 C 102.42 40.12 107.46 37.61 104.12 37.27 M 93.08 38.29 C 91.55 41.25 96.43 38.41 93.08 38.29 M 104.13 40.46 C 103.23 41.65 103.47 42.35 104.84 42.54 C 105.72 41.35 105.49 40.66 104.13 40.46 M 66.28 42.24 C 66.84 42.82 66.84 42.82 66.28 42.24 M 65.08 44.30 C 63.59 47.29 68.42 44.37 65.08 44.30 M 101.09 44.31 C 99.60 47.28 104.43 44.41 101.09 44.31 M 97.09 46.30 C 95.56 49.25 100.45 46.41 97.09 46.30 M 60.15 47.45 C 59.26 48.67 59.50 49.36 60.86 49.54 C 61.74 48.32 61.51 47.62 60.15 47.45 M 65.15 47.45 C 64.26 48.65 64.49 49.35 65.85 49.55 C 66.74 48.35 66.51 47.65 65.15 47.45 M 60.12 51.26 C 58.52 54.19 63.44 51.49 60.12 51.26 M 69.77 53.07 C 71.35 54.98 73.13 56.74 75.24 58.06 C 74.93 56.02 74.39 54.02 73.68 52.08 C 72.36 52.34 71.06 52.66 69.77 53.07 Z" />
<path fill="#5d2a58" opacity="1.00" d=" M 13.86 16.20 C 18.08 16.20 22.35 15.79 26.54 16.36 C 29.39 17.41 31.34 19.92 33.49 21.95 C 32.61 23.34 31.72 24.74 30.83 26.13 C 28.60 25.89 25.65 26.96 24.07 24.89 C 23.27 24.02 22.57 23.07 21.84 22.14 C 20.82 22.65 19.76 23.10 18.81 23.76 C 16.68 25.21 16.87 28.78 14.13 29.47 C 14.70 27.12 16.09 24.82 15.79 22.36 C 14.50 20.53 13.44 18.52 13.86 16.20 Z" />
<path fill="#5d2a58" opacity="1.00" d=" M 12.24 17.47 C 13.58 17.69 13.80 18.41 12.91 19.63 C 11.56 19.41 11.34 18.69 12.24 17.47 Z" />
<path fill="#5d2a58" opacity="1.00" d=" M 22.27 28.12 C 26.20 27.43 30.22 27.71 34.19 27.85 C 34.41 30.57 33.51 33.55 35.02 36.02 C 39.99 45.45 44.66 55.92 42.95 66.84 C 42.88 68.77 40.65 69.58 39.01 69.40 C 31.01 69.27 23.00 69.71 15.02 69.06 C 13.39 63.95 14.14 58.47 14.35 53.20 C 15.16 47.09 21.55 44.05 23.43 38.44 C 25.13 34.91 21.79 31.75 22.27 28.12 Z" />
<path fill="#5d2a58" opacity="1.00" d=" M 61.25 83.23 C 63.03 82.39 64.94 81.79 66.94 81.89 C 75.64 81.88 84.33 81.90 93.03 81.89 C 94.76 81.76 96.28 82.62 97.78 83.35 C 96.45 101.22 94.62 119.04 93.17 136.91 C 84.06 137.08 74.93 137.10 65.82 136.91 C 64.30 119.02 62.41 101.15 61.25 83.23 M 91.15 94.25 C 91.71 94.80 91.71 94.80 91.15 94.25 M 85.23 96.25 C 85.81 96.79 85.81 96.79 85.23 96.25 M 85.12 99.29 C 83.43 102.12 88.47 99.60 85.12 99.29 M 89.05 99.29 C 87.58 102.28 92.40 99.33 89.05 99.29 M 65.24 100.24 C 65.81 100.79 65.81 100.79 65.24 100.24 M 74.22 102.23 C 74.79 102.78 74.79 102.78 74.22 102.23 M 89.29 102.06 C 89.37 105.42 92.24 100.54 89.29 102.06 M 76.09 104.30 C 74.57 107.26 79.45 104.38 76.09 104.30 M 85.29 104.09 C 85.39 107.46 88.23 102.56 85.29 104.09 M 89.08 104.31 C 87.56 107.27 92.42 104.42 89.08 104.31 M 93.08 104.29 C 91.54 107.23 96.44 104.41 93.08 104.29 M 72.10 105.33 C 70.57 108.26 75.47 105.43 72.10 105.33 M 83.10 105.28 C 81.48 108.19 86.43 105.48 83.10 105.28 M 91.26 105.25 C 91.82 105.82 91.82 105.82 91.26 105.25 M 67.16 106.27 C 67.73 106.82 67.73 106.82 67.16 106.27 M 74.21 106.28 C 74.75 106.85 74.75 106.85 74.21 106.28 M 85.10 106.29 C 83.52 109.24 88.43 106.44 85.10 106.29 M 76.05 107.27 C 74.50 110.24 79.38 107.38 76.05 107.27 M 78.17 107.45 C 77.28 108.65 77.50 109.35 78.85 109.56 C 79.75 108.37 79.52 107.66 78.17 107.45 M 87.10 107.30 C 85.55 110.24 90.44 107.44 87.10 107.30 M 68.16 109.23 C 68.72 109.79 68.72 109.79 68.16 109.23 M 66.26 110.25 C 66.81 110.80 66.81 110.80 66.26 110.25 M 71.16 110.25 C 71.71 110.81 71.71 110.81 71.16 110.25 M 76.08 110.28 C 74.55 113.22 79.44 110.38 76.08 110.28 M 90.15 110.23 C 90.71 110.79 90.71 110.79 90.15 110.23 M 78.19 111.30 C 78.78 111.83 78.78 111.83 78.19 111.30 M 68.14 113.46 C 67.24 114.67 67.47 115.36 68.83 115.54 C 69.73 114.32 69.49 113.63 68.14 113.46 M 70.34 113.24 C 70.92 113.79 70.92 113.79 70.34 113.24 M 90.24 114.23 C 90.81 114.80 90.81 114.80 90.24 114.23 M 70.33 115.27 C 70.90 115.83 70.90 115.83 70.33 115.27 M 85.06 115.32 C 83.62 118.31 88.42 115.29 85.06 115.32 M 74.23 116.23 C 74.80 116.81 74.80 116.81 74.23 116.23 M 87.28 116.20 C 87.83 116.78 87.83 116.78 87.28 116.20 M 89.07 116.30 C 87.60 119.28 92.42 116.31 89.07 116.30 M 91.26 117.22 C 91.82 117.79 91.82 117.79 91.26 117.22 M 70.23 118.28 C 70.80 118.82 70.80 118.82 70.23 118.28 M 73.20 118.20 C 73.78 118.78 73.78 118.78 73.20 118.20 M 85.09 118.30 C 83.55 121.24 88.44 118.41 85.09 118.30 M 68.24 119.25 C 68.81 119.81 68.81 119.81 68.24 119.25 M 90.05 119.32 C 88.53 122.28 93.42 119.39 90.05 119.32 M 92.24 119.25 C 92.80 119.80 92.80 119.80 92.24 119.25 M 76.34 121.24 C 76.90 121.80 76.90 121.80 76.34 121.24 M 79.33 121.24 C 79.88 121.81 79.88 121.81 79.33 121.24 M 68.16 122.45 C 67.26 123.65 67.49 124.35 68.84 124.55 C 69.73 123.34 69.50 122.64 68.16 122.45 M 88.98 125.05 C 87.48 128.01 92.25 125.56 88.98 125.05 C 90.56 122.09 85.74 124.46 88.98 125.05 M 90.29 123.24 C 90.85 123.80 90.85 123.80 90.29 123.24 M 70.00 126.00 C 69.44 126.56 69.44 126.56 70.00 126.00 C 70.57 125.42 70.57 125.42 70.00 126.00 M 81.08 126.33 C 79.58 129.27 84.44 126.38 81.08 126.33 M 87.26 126.24 C 87.81 126.81 87.81 126.81 87.26 126.24 M 71.09 127.30 C 69.54 130.23 74.46 127.44 71.09 127.30 M 79.23 127.20 C 79.76 127.78 79.76 127.78 79.23 127.20 M 86.15 128.25 C 86.72 128.80 86.72 128.80 86.15 128.25 M 88.11 128.29 C 86.45 131.18 91.44 128.56 88.11 128.29 M 68.30 129.20 C 68.86 129.76 68.86 129.76 68.30 129.20 M 75.24 129.23 C 74.15 129.35 73.21 131.69 74.76 131.77 C 76.01 131.74 76.89 129.29 75.24 129.23 M 83.29 129.28 C 83.84 129.84 83.84 129.84 83.29 129.28 M 90.26 129.22 C 90.80 129.80 90.80 129.80 90.26 129.22 M 72.10 130.28 C 70.51 133.20 75.45 130.47 72.10 130.28 M 83.25 131.23 C 83.81 131.80 83.81 131.80 83.25 131.23 M 70.11 132.26 C 68.41 135.10 73.45 132.61 70.11 132.26 M 76.12 132.30 C 74.50 135.19 79.46 132.54 76.12 132.30 M 74.24 133.24 C 74.80 133.81 74.80 133.81 74.24 133.24 Z" />
<path fill="#5d2a58" opacity="1.00" d=" M 22.83 85.01 C 24.28 84.25 25.85 83.40 27.52 84.06 C 28.48 88.38 29.43 92.76 29.14 97.22 C 25.20 94.44 24.79 89.10 22.83 85.01 Z" />
<path fill="#5d2a58" opacity="1.00" d=" M 30.69 95.17 C 30.84 89.35 35.46 84.15 41.44 84.10 C 42.16 90.27 36.62 95.22 30.69 95.17 Z" />
<path fill="#5d2a58" opacity="1.00" d=" M 14.44 96.55 C 18.94 94.56 23.66 96.54 27.99 97.90 C 32.10 96.63 36.37 94.79 40.72 96.18 C 45.92 98.09 48.94 103.69 49.30 109.00 C 50.56 118.40 45.83 127.80 38.72 133.75 C 36.19 136.04 32.75 134.90 29.84 134.23 C 26.55 133.03 23.47 136.20 20.18 135.13 C 15.44 133.59 12.21 129.28 9.97 125.04 C 7.48 119.65 5.28 113.58 6.69 107.59 C 7.61 103.10 10.10 98.49 14.44 96.55 Z" />
</g>
</svg>
